<svg width="37" height="42" viewBox="0 0 37 42" fill="none" xmlns="http://www.w3.org/2000/svg">
<path fill-rule="evenodd" clip-rule="evenodd" d="M34.2051 8.42432L34.8824 9.18632L35.2634 8.97465L34.2051 8.42432Z" fill="#DC0032"/>
<path fill-rule="evenodd" clip-rule="evenodd" d="M33.1895 7.87402L34.5017 9.39802L34.9674 9.14402L34.4594 8.55136L33.1895 7.87402Z" fill="#DC0032"/>
<path fill-rule="evenodd" clip-rule="evenodd" d="M32.1309 7.32373L34.1205 9.60973L34.5861 9.35573L33.4432 8.00106L32.1309 7.32373Z" fill="#DC0032"/>
<path fill-rule="evenodd" clip-rule="evenodd" d="M31.1152 6.77319L33.7399 9.82119L34.2056 9.56719L32.3852 7.45053L31.1152 6.77319ZM36.1528 12.1495L35.8565 12.3188L36.1528 12.6575V12.1495Z" fill="#DC0032"/>
<path fill-rule="evenodd" clip-rule="evenodd" d="M30.0986 6.2229L33.3583 10.0329L33.824 9.7789L31.3686 6.90023L30.0986 6.2229ZM35.9829 12.2342L35.5172 12.5305L36.1522 13.2925V12.4882L35.9829 12.2342Z" fill="#DC0032"/>
<path fill-rule="evenodd" clip-rule="evenodd" d="M29.04 5.67261L32.977 10.2446L33.485 9.99061L30.3524 6.34994L29.04 5.67261ZM35.6016 12.4459L35.136 12.7422L36.152 13.9276V13.1232L35.6016 12.4459Z" fill="#DC0032"/>
<path fill-rule="evenodd" clip-rule="evenodd" d="M28.0244 5.12231L32.6387 10.4563L33.1044 10.2023L29.2944 5.79963L28.0244 5.12231ZM35.221 12.6999L34.7554 12.9539L36.1524 14.6049V13.8006L35.221 12.6999Z" fill="#DC0032"/>
<path fill-rule="evenodd" clip-rule="evenodd" d="M27.0088 4.57202L32.2581 10.668L32.7238 10.414L28.2788 5.24935L27.0088 4.57202ZM34.8404 12.9116L34.3747 13.1656L36.1527 15.2399V14.4356L34.8404 12.9116Z" fill="#DC0032"/>
<path fill-rule="evenodd" clip-rule="evenodd" d="M25.9502 4.02173L31.8768 10.8797L32.3425 10.6257L27.2625 4.69906L25.9502 4.02173ZM34.4591 13.1233L33.9935 13.3773L36.1524 15.875V15.0706L34.4591 13.1233Z" fill="#DC0032"/>
<path fill-rule="evenodd" clip-rule="evenodd" d="M24.9346 3.47119L31.4962 11.1335L31.9618 10.8372L26.2046 4.14852L24.9346 3.47119ZM34.0785 13.3348L33.6128 13.5888L36.1528 16.5521V15.7478L34.0785 13.3348Z" fill="#DC0032"/>
<path fill-rule="evenodd" clip-rule="evenodd" d="M23.876 2.9209L31.1149 11.3452L31.5806 11.0489L25.1883 3.59823L23.876 2.9209ZM33.7396 13.5465L33.2316 13.8005L36.1525 17.1871V16.3828L33.7396 13.5465Z" fill="#DC0032"/>
<path fill-rule="evenodd" clip-rule="evenodd" d="M22.8594 2.37061L30.7333 11.5568L31.2413 11.2606L24.1717 3.04793L22.8594 2.37061ZM33.358 13.7582L32.8923 14.0122L36.1519 17.8645V17.0178L33.358 13.7582Z" fill="#DC0032"/>
<path fill-rule="evenodd" clip-rule="evenodd" d="M21.8438 1.82031L30.395 11.7685L30.8607 11.4722L23.1138 2.49764L21.8438 1.82031ZM32.9774 13.9699L32.5117 14.2239L36.1523 18.4995V17.6952L32.9774 13.9699Z" fill="#DC0032"/>
<path fill-rule="evenodd" clip-rule="evenodd" d="M20.7852 1.22754L30.0138 11.9801L30.4794 11.6838L22.0975 1.9472L20.7852 1.22754ZM32.5961 14.1814L32.1304 14.4354L36.152 19.1344V18.3301L32.5961 14.1814Z" fill="#DC0032"/>
<path fill-rule="evenodd" clip-rule="evenodd" d="M19.7695 0.677246L29.6331 12.1918L30.0988 11.9378L21.0819 1.39691L19.7695 0.677246ZM32.2155 14.3931L31.7498 14.6471L36.1524 19.8117V18.9651L32.2155 14.3931Z" fill="#DC0032"/>
<path fill-rule="evenodd" clip-rule="evenodd" d="M18.7539 0.169434L29.2525 12.4037L29.7181 12.1497L20.0238 0.846762L18.7539 0.169434ZM31.8348 14.605L31.3691 14.859L36.1527 20.4469V19.6426L31.8348 14.605Z" fill="#DC0032"/>
<path fill-rule="evenodd" clip-rule="evenodd" d="M18.0762 0L28.8711 12.6152L29.3367 12.3612L19.0075 0.296331L18.7535 0.169332C18.5418 0.042333 18.3302 0 18.0762 0ZM31.4534 14.8166L30.9877 15.0706L36.1523 21.0818V20.2775L31.4534 14.8166Z" fill="#DC0032"/>
<path fill-rule="evenodd" clip-rule="evenodd" d="M18.0764 0C17.907 0 17.7377 0.042333 17.5684 0.0846661L28.4902 12.8269L28.9982 12.5729L18.2034 0C18.161 0 18.1187 0 18.0764 0ZM31.1149 15.0282L30.6492 15.2822L36.1525 21.7592V20.9125L31.1149 15.0282Z" fill="#DC0032"/>
<path fill-rule="evenodd" clip-rule="evenodd" d="M17.6955 0.0422363C17.6108 0.0845694 17.4838 0.126902 17.4415 0.169236L17.1875 0.296234L28.1517 13.0385L28.6174 12.7845L17.6955 0.0422363ZM30.7341 15.2398L30.2684 15.5361L36.1527 22.3941V21.5897L30.7341 15.2398Z" fill="#DC0032"/>
<path fill-rule="evenodd" clip-rule="evenodd" d="M17.2723 0.21167L16.8066 0.465668L27.7709 13.2502L28.2365 12.9962L17.2723 0.21167ZM30.3532 15.4516L29.8875 15.7479L36.1528 23.0292V22.2248L30.3532 15.4516Z" fill="#DC0032"/>
<path fill-rule="evenodd" clip-rule="evenodd" d="M16.8905 0.42334L16.4248 0.677338L27.389 13.4619L27.8547 13.2079L16.8905 0.42334ZM29.9714 15.6632L29.5057 15.9596L36.152 23.7065V22.9022L29.9714 15.6632Z" fill="#DC0032"/>
<path fill-rule="evenodd" clip-rule="evenodd" d="M16.5096 0.63501L16.0439 0.88901L27.0082 13.6736L27.4738 13.4196L16.5096 0.63501ZM29.5905 15.8749L29.1248 16.1712L36.1521 24.3415V23.5372L29.5905 15.8749Z" fill="#DC0032"/>
<path fill-rule="evenodd" clip-rule="evenodd" d="M16.1288 0.84668L15.6631 1.10068L26.6274 13.8852L27.093 13.6312L16.1288 0.84668ZM29.2096 16.0866L28.744 16.3829L36.1523 24.9765V24.1722L29.2096 16.0866Z" fill="#DC0032"/>
<path fill-rule="evenodd" clip-rule="evenodd" d="M15.7479 1.05835L15.2822 1.31234L26.2465 14.0969L26.7121 13.8429L15.7479 1.05835ZM28.8711 16.2982L28.4054 16.5946L36.1524 25.6539V24.8495L28.8711 16.2982Z" fill="#DC0032"/>
<path fill-rule="evenodd" clip-rule="evenodd" d="M15.367 1.22754L14.9014 1.52387L25.908 14.3084L26.3736 14.0544L15.367 1.22754ZM28.4903 16.5521L28.0246 16.8061L36.1525 26.2887V25.4844L28.4903 16.5521Z" fill="#DC0032"/>
<path fill-rule="evenodd" clip-rule="evenodd" d="M14.9862 1.43921L14.5205 1.69321L25.5271 14.5201L25.9928 14.2661L14.9862 1.43921ZM28.1094 16.7638L27.6437 17.0178L36.1527 26.966V26.1194L28.1094 16.7638Z" fill="#DC0032"/>
<path fill-rule="evenodd" clip-rule="evenodd" d="M14.6053 1.65088L14.1396 1.90488L25.1463 14.7741L25.6119 14.4778L14.6053 1.65088ZM27.7285 16.9754L27.2629 17.2294L36.1528 27.601V26.7967L27.7285 16.9754Z" fill="#DC0032"/>
<path fill-rule="evenodd" clip-rule="evenodd" d="M14.2235 1.86255L13.7578 2.11654L24.7644 14.9858L25.2301 14.6894L14.2235 1.86255ZM27.3467 17.1871L26.881 17.4411L36.152 28.236V27.4317L27.3467 17.1871Z" fill="#DC0032"/>
<path fill-rule="evenodd" clip-rule="evenodd" d="M13.8426 2.07422L13.377 2.32822L24.3836 15.1975L24.8492 14.9011L13.8426 2.07422ZM26.9658 17.3988L26.5002 17.6528L36.1521 28.9133V28.0667L26.9658 17.3988Z" fill="#DC0032"/>
<path fill-rule="evenodd" clip-rule="evenodd" d="M13.4618 2.28589L12.9961 2.53989L24.0027 15.4091L24.4684 15.1128L13.4618 2.28589ZM26.6274 17.6105L26.1617 17.8645L36.1523 29.5483V28.744L26.6274 17.6105Z" fill="#DC0032"/>
<path fill-rule="evenodd" clip-rule="evenodd" d="M13.0812 2.45532L12.5732 2.70932L23.6645 15.6209L24.1302 15.3246L13.0812 2.45532ZM26.2469 17.8222L25.7812 18.0762L36.1527 30.1834V29.3791L26.2469 17.8222Z" fill="#DC0032"/>
<path fill-rule="evenodd" clip-rule="evenodd" d="M12.6994 2.66699L12.1914 2.92099L23.325 15.8749C23.3674 15.7902 23.4097 15.7479 23.4944 15.7056L23.7484 15.5362L12.6994 2.66699ZM25.865 18.0339L25.3994 18.2879L36.0672 30.7338C36.1096 30.6068 36.1519 30.4798 36.1519 30.3528V30.0141L25.865 18.0339Z" fill="#DC0032"/>
<path fill-rule="evenodd" clip-rule="evenodd" d="M12.3185 2.87866L11.8105 3.13266L23.1982 16.3829V16.2136C23.1982 16.0866 23.2828 15.9172 23.3675 15.7902L12.3185 2.87866ZM25.4842 18.2456L25.1455 18.4572C25.1032 18.4572 25.0608 18.4996 25.0185 18.4996L35.8557 31.1571C35.9827 30.9878 36.0674 30.8185 36.1097 30.6491L25.4842 18.2456Z" fill="#DC0032"/>
<path fill-rule="evenodd" clip-rule="evenodd" d="M11.9376 3.09033L11.4297 3.34433L23.1982 17.0602V16.2136L11.9376 3.09033ZM24.2989 18.2879L35.5595 31.4535C35.6865 31.3688 35.8135 31.1995 35.9405 31.0725L25.1032 18.4572C24.9339 18.5419 24.6799 18.5419 24.5106 18.4572L24.2989 18.2879Z" fill="#DC0032"/>
<path fill-rule="evenodd" clip-rule="evenodd" d="M11.5568 3.302L11.0488 3.556L35.1786 31.6651L35.5173 31.4958C35.5596 31.4535 35.6019 31.4111 35.6443 31.3688L24.553 18.4572H24.5107L23.537 17.8646C23.4524 17.8222 23.41 17.7376 23.3254 17.6529C23.2407 17.5259 23.2407 17.4412 23.1984 17.3566V16.8909L11.5568 3.302Z" fill="#DC0032"/>
<path fill-rule="evenodd" clip-rule="evenodd" d="M11.176 3.51367L10.668 3.76767L34.7977 31.8768L35.2634 31.6228L11.176 3.51367Z" fill="#DC0032"/>
<path fill-rule="evenodd" clip-rule="evenodd" d="M10.7951 3.68286L10.2871 3.93686L34.4592 32.0883L34.9249 31.8343L10.7951 3.68286Z" fill="#DC0032"/>
<path fill-rule="evenodd" clip-rule="evenodd" d="M10.4143 3.89453L9.90625 4.14853L34.0784 32.3L34.544 32.046L10.4143 3.89453Z" fill="#DC0032"/>
<path fill-rule="evenodd" clip-rule="evenodd" d="M10.0334 4.1062L9.52539 4.3602L33.6976 32.5117L34.1632 32.2577L10.0334 4.1062Z" fill="#DC0032"/>
<path fill-rule="evenodd" clip-rule="evenodd" d="M9.60922 4.31787L9.14355 4.57187L33.3157 32.7657L33.7814 32.4693L9.60922 4.31787Z" fill="#DC0032"/>
<path fill-rule="evenodd" clip-rule="evenodd" d="M9.22836 4.52954L8.7627 4.78354L32.9349 32.9773L33.4005 32.681L9.22836 4.52954Z" fill="#DC0032"/>
<path fill-rule="evenodd" clip-rule="evenodd" d="M8.8475 4.74121L8.38184 4.9952L32.5963 33.189L33.062 32.8927L8.8475 4.74121Z" fill="#DC0032"/>
<path fill-rule="evenodd" clip-rule="evenodd" d="M8.46664 4.91064L8.00098 5.16464L32.2155 33.4008L32.6811 33.1045L8.46664 4.91064Z" fill="#DC0032"/>
<path fill-rule="evenodd" clip-rule="evenodd" d="M8.08578 5.12231L7.62012 5.37631L31.8346 33.6125L32.3003 33.3585L8.08578 5.12231Z" fill="#DC0032"/>
<path fill-rule="evenodd" clip-rule="evenodd" d="M7.70492 5.33398L7.23926 5.58798L19.0079 19.3039L19.3888 19.5579C19.5581 19.6425 19.7275 19.8542 19.7275 20.0659V20.1082L31.4538 33.8241L31.9194 33.5701L7.70492 5.33398Z" fill="#DC0032"/>
<path fill-rule="evenodd" clip-rule="evenodd" d="M7.32407 5.54565L6.8584 5.79964L17.9073 18.7112L19.3043 19.4732L7.32407 5.54565ZM19.6853 19.9389C19.6853 19.9812 19.7276 20.0235 19.7276 20.0659V20.7855L31.0729 34.0358L31.5386 33.7818L19.6853 19.9389Z" fill="#DC0032"/>
<path fill-rule="evenodd" clip-rule="evenodd" d="M6.94223 5.75732L6.47656 6.01132L16.8058 18.0763L18.2028 18.8383L6.94223 5.75732ZM19.7268 20.6162V21.4205L30.7334 34.2475L31.1991 33.9935L19.7268 20.6162Z" fill="#DC0032"/>
<path fill-rule="evenodd" clip-rule="evenodd" d="M6.56137 5.96899L6.0957 6.22299L15.7476 17.4413L17.1023 18.2033L6.56137 5.96899ZM19.7269 21.2512V22.0979L30.3525 34.4591L30.8182 34.2052L19.7269 21.2512Z" fill="#DC0032"/>
<path fill-rule="evenodd" clip-rule="evenodd" d="M6.18051 6.13818L5.71484 6.39218L14.6471 16.8061L16.0018 17.6105L6.18051 6.13818ZM19.7271 21.9284V22.7327L29.9717 34.6706L30.4373 34.4166L19.7271 21.9284Z" fill="#DC0032"/>
<path fill-rule="evenodd" clip-rule="evenodd" d="M5.79963 6.34985L5.33398 6.60385L13.5466 16.1711L14.9012 16.9755L5.79963 6.34985ZM19.7272 22.5634V23.3677L29.5908 34.8823L30.0565 34.6283L19.7272 22.5634Z" fill="#DC0032"/>
<path fill-rule="evenodd" clip-rule="evenodd" d="M5.41879 6.56152L4.95312 6.81552L12.446 15.5785L13.8007 16.3405L5.41879 6.56152ZM19.7273 23.1984V24.0451L29.2099 35.1363L29.6756 34.84L19.7273 23.1984Z" fill="#DC0032"/>
<path fill-rule="evenodd" clip-rule="evenodd" d="M5.03793 6.77319L4.57227 7.02719L11.3456 14.9435L12.7002 15.7055L5.03793 6.77319ZM19.7275 23.8757V24.6801L28.8714 35.348L29.3371 35.0516L19.7275 23.8757Z" fill="#DC0032"/>
<path fill-rule="evenodd" clip-rule="evenodd" d="M4.65707 6.98486L4.19141 7.23886L10.245 14.3085L11.642 15.0705L4.65707 6.98486ZM19.7276 24.5107V25.3151L28.4905 35.5596L28.9562 35.2633L19.7276 24.5107Z" fill="#DC0032"/>
<path fill-rule="evenodd" clip-rule="evenodd" d="M4.27523 7.19653L3.80957 7.45053L9.14354 13.6735L10.5405 14.4778L4.27523 7.19653ZM15.3665 20.9124L16.4672 22.1824V21.7168C16.4672 21.6321 16.3825 21.5051 16.2978 21.4628L15.3665 20.9124ZM19.7268 25.1458V25.9924L28.1087 35.7713L28.5744 35.475L19.7268 25.1458Z" fill="#DB0032"/>
<path fill-rule="evenodd" clip-rule="evenodd" d="M3.89437 7.36597L3.42871 7.61997L8.04301 13.0386L9.44001 13.8429L3.89437 7.36597ZM14.266 20.2775L16.4673 22.8175V22.0132L15.663 21.0819L14.266 20.2775ZM19.7269 25.8232V26.6275L27.7278 35.9831L28.1935 35.7291L19.7269 25.8232Z" fill="#DC0032"/>
<path fill-rule="evenodd" clip-rule="evenodd" d="M3.51351 7.57764L3.04785 7.83164L6.98482 12.4459L8.33948 13.2079L3.51351 7.57764ZM13.1654 19.6849L16.4674 23.4949V22.6905L14.5624 20.4469L13.1654 19.6849ZM19.727 26.4582V27.2625L27.347 36.1947L27.8127 35.9407L19.727 26.4582Z" fill="#DC0032"/>
<path fill-rule="evenodd" clip-rule="evenodd" d="M3.13265 7.78931L2.66699 8.04331L5.88429 11.8109L7.23895 12.5729L3.13265 7.78931ZM12.1072 19.0499L16.4676 24.1299V23.3255L13.4619 19.8119L12.1072 19.0499ZM19.7272 27.1355V27.9398L27.0084 36.4064L27.4741 36.1524L19.7272 27.1355Z" fill="#DC0032"/>
<path fill-rule="evenodd" clip-rule="evenodd" d="M2.75179 8.00098L2.28613 8.25498L4.78378 11.176L6.13843 11.9379L2.75179 8.00098ZM11.0068 18.4149L16.4677 24.7649V23.9605L12.3614 19.2192L11.0068 18.4149ZM19.7273 27.7705V28.5748L26.6276 36.6181L27.0933 36.3641L19.7273 27.7705Z" fill="#DC0032"/>
<path fill-rule="evenodd" clip-rule="evenodd" d="M2.37093 8.21265L1.90527 8.46665L3.68326 10.541L5.03791 11.3453L2.37093 8.21265ZM9.90623 17.7799L16.4678 25.4422V24.6379L11.2609 18.5843L9.90623 17.7799ZM19.7274 28.4055V29.2098L26.2468 36.8298L26.7124 36.5758L19.7274 28.4055Z" fill="#DC0032"/>
<path fill-rule="evenodd" clip-rule="evenodd" d="M1.99008 8.42432L1.52441 8.67832L2.58274 9.90598L3.97973 10.7103L1.99008 8.42432ZM8.8057 17.1873L16.468 26.0772V25.2729L10.1604 17.9493L8.8057 17.1873ZM19.7276 29.0828V29.8872L25.8659 37.0414L26.3316 36.7874L19.7276 29.0828Z" fill="#DC0032"/>
<path fill-rule="evenodd" clip-rule="evenodd" d="M1.60858 8.59351L1.10059 8.84751L1.48158 9.31317L2.87857 10.0752L1.60858 8.59351ZM7.70454 16.5521L16.4675 26.7543V25.9077L9.10154 17.3141L7.70454 16.5521ZM19.7271 29.7177V30.522L25.4844 37.2953L25.9501 36.9989L19.7271 29.7177Z" fill="#DC0032"/>
<path fill-rule="evenodd" clip-rule="evenodd" d="M1.22797 8.80518L0.931641 8.97451L1.7783 9.44018L1.22797 8.80518ZM6.60426 15.9171L16.4679 27.3893V26.5851L8.00126 16.7215L6.60426 15.9171ZM19.7275 30.3527V31.1993L25.1461 37.507L25.6118 37.2106L19.7275 30.3527Z" fill="#DC0032"/>
<path fill-rule="evenodd" clip-rule="evenodd" d="M5.5459 15.2822L16.4678 28.0244V27.2201L6.90055 16.0866L5.5459 15.2822ZM19.7274 31.0301V31.8344L24.7651 37.7187L25.2308 37.4224L19.7274 31.0301Z" fill="#DC0032"/>
<path fill-rule="evenodd" clip-rule="evenodd" d="M4.44531 14.6895L16.4679 28.7017V27.855L5.79996 15.4515L4.44531 14.6895ZM19.7275 31.665V32.4693L24.3842 37.9303L24.8498 37.634L19.7275 31.665Z" fill="#DC0032"/>
<path fill-rule="evenodd" clip-rule="evenodd" d="M3.34473 14.0544L16.468 29.3367V28.5323L4.69938 14.8164L3.34473 14.0544ZM19.7276 32.3V33.1467L24.0032 38.1419L24.4689 37.8879L19.7276 32.3Z" fill="#DC0032"/>
<path fill-rule="evenodd" clip-rule="evenodd" d="M2.24316 13.4194L16.4671 29.9717V29.1673L3.59782 14.2238L2.24316 13.4194ZM19.7267 32.9773V33.7817L23.6213 38.3536L24.087 38.0996L19.7267 32.9773Z" fill="#DB0032"/>
<path fill-rule="evenodd" clip-rule="evenodd" d="M1.14258 12.7847L16.4671 30.6492V29.8449L2.49723 13.589L1.14258 12.7847ZM19.7267 33.6126V34.4168L23.2827 38.5655L23.7484 38.3115L19.7267 33.6126Z" fill="#DA0032"/>
<path fill-rule="evenodd" clip-rule="evenodd" d="M0.0419922 12.1919L16.4672 31.2841V30.4798L1.43898 12.9539L0.0419922 12.1919ZM19.7268 34.2474V35.0941L22.9018 38.7771L23.3675 38.5231L19.7268 34.2474Z" fill="#D90032"/>
<path fill-rule="evenodd" clip-rule="evenodd" d="M0 12.1497V12.7423L16.4676 31.9192V31.1149L0.338664 12.319L0 12.1497ZM19.7272 34.9248V35.4328C19.7272 35.5175 19.6848 35.6022 19.6425 35.6445L22.5212 38.9888L22.9868 38.7348L19.7272 34.9248Z" fill="#D80032"/>
<path fill-rule="evenodd" clip-rule="evenodd" d="M0 12.573V13.4197L16.4676 32.5966V31.7922L0 12.573ZM19.6848 35.5598C19.6425 35.7292 19.5155 35.8985 19.3885 35.9408L19.3462 35.9832L22.1402 39.2005L22.6058 38.9465L19.6848 35.5598Z" fill="#D70032"/>
<path fill-rule="evenodd" clip-rule="evenodd" d="M0 13.2502V14.0546L16.4676 33.2315V32.4271L0 13.2502ZM19.4308 35.8984C19.4308 35.9407 19.4308 35.9407 19.3885 35.9407L18.9652 36.1947L21.7592 39.4121L22.2248 39.1581L19.4308 35.8984Z" fill="#D60032"/>
<path fill-rule="evenodd" clip-rule="evenodd" d="M0 13.8853V14.6896L16.4676 33.8665V33.0621L0 13.8853ZM19.0922 36.1101L18.5842 36.4064L21.4205 39.6661L21.8862 39.3698L19.0922 36.1101Z" fill="#D50032"/>
<path fill-rule="evenodd" clip-rule="evenodd" d="M0 14.5625V15.3668L16.4676 34.5437V33.7394L0 14.5625ZM18.7112 36.3217L18.4149 36.491C18.3302 36.5333 18.2456 36.5333 18.1609 36.5333L21.0395 39.8777L21.5052 39.5813L18.7112 36.3217Z" fill="#D40032"/>
<path fill-rule="evenodd" clip-rule="evenodd" d="M0 15.1975V16.0018L16.4676 35.1787V34.3743L0 15.1975ZM17.3989 36.3217L20.6585 40.0893L21.1242 39.793L18.2879 36.5333C18.2456 36.5333 18.1609 36.5757 18.1186 36.5757H18.0762C17.9492 36.5757 17.8646 36.5333 17.7799 36.491L17.3989 36.3217Z" fill="#D30032"/>
<path fill-rule="evenodd" clip-rule="evenodd" d="M0 15.8325V16.6792L20.2775 40.301L20.7432 40.0047L17.6952 36.4487L16.7639 35.9407C16.5946 35.856 16.4676 35.6443 16.4676 35.4327V35.0093L0 15.8325Z" fill="#D20032"/>
<path fill-rule="evenodd" clip-rule="evenodd" d="M0 16.5098V17.3141L19.8965 40.5126L20.3622 40.2586L0 16.5098Z" fill="#D10032"/>
<path fill-rule="evenodd" clip-rule="evenodd" d="M0 17.1448V17.9491L19.5155 40.7243L19.9812 40.4703L0 17.1448Z" fill="#D00032"/>
<path fill-rule="evenodd" clip-rule="evenodd" d="M0 17.7798V18.6265L19.1768 40.9359L19.6425 40.6819L0 17.7798Z" fill="#CF0032"/>
<path fill-rule="evenodd" clip-rule="evenodd" d="M0 18.4573V19.2616L18.7959 41.1478L19.2615 40.8938L0 18.4573Z" fill="#CE0032"/>
<path fill-rule="evenodd" clip-rule="evenodd" d="M0 19.0923V19.8966L18.3726 41.3172C18.4996 41.2748 18.6266 41.2325 18.7536 41.1902L18.8806 41.1055L0 19.0923Z" fill="#CD0032"/>
<path fill-rule="evenodd" clip-rule="evenodd" d="M0 19.7271V20.5737L17.8222 41.3169C17.9069 41.3169 17.9916 41.3169 18.0762 41.3169C18.2032 41.3169 18.3302 41.3169 18.4572 41.2746L0 19.7271Z" fill="#CC0032"/>
<path fill-rule="evenodd" clip-rule="evenodd" d="M0 20.4045V21.2089L16.8486 40.8514L17.4412 41.1901C17.5682 41.2748 17.7799 41.3171 17.9492 41.3171L0 20.4045Z" fill="#CB0032"/>
<path fill-rule="evenodd" clip-rule="evenodd" d="M0 21.0396V21.8439L15.7479 40.2164L17.1449 41.0208L0 21.0396Z" fill="#CA0032"/>
<path fill-rule="evenodd" clip-rule="evenodd" d="M0 21.7168V22.5211L14.6472 39.5814L16.0442 40.3857L0 21.7168Z" fill="#C90032"/>
<path fill-rule="evenodd" clip-rule="evenodd" d="M0 22.3518V23.1561L13.5466 38.9464L14.9012 39.7507L0 22.3518Z" fill="#C80033"/>
<path fill-rule="evenodd" clip-rule="evenodd" d="M0 22.9868V23.7912L12.4459 38.3114L13.8006 39.1157L0 22.9868Z" fill="#C70033"/>
<path fill-rule="evenodd" clip-rule="evenodd" d="M0 23.6641V24.4684L11.3029 37.634L12.6999 38.4383L0 23.6641Z" fill="#C60033"/>
<path fill-rule="evenodd" clip-rule="evenodd" d="M0 24.2991V25.1034L10.2023 36.999L11.5992 37.8033L0 24.2991Z" fill="#C50033"/>
<path fill-rule="evenodd" clip-rule="evenodd" d="M0 24.9341V25.7384L9.10161 36.364L10.4986 37.1683L0 24.9341Z" fill="#C40033"/>
<path fill-rule="evenodd" clip-rule="evenodd" d="M0 25.6116V26.4159L8.00094 35.7291L9.39794 36.5335L0 25.6116Z" fill="#C30033"/>
<path fill-rule="evenodd" clip-rule="evenodd" d="M0 26.2466V27.0509L6.90028 35.0941L8.29728 35.8985L0 26.2466Z" fill="#C20033"/>
<path fill-rule="evenodd" clip-rule="evenodd" d="M0 26.8813V27.728L5.79961 34.459L7.15428 35.2633L0 26.8813Z" fill="#C10033"/>
<path fill-rule="evenodd" clip-rule="evenodd" d="M0 27.5588V28.3632L4.65663 33.8242L6.05361 34.6284L0 27.5588Z" fill="#C00033"/>
<path fill-rule="evenodd" clip-rule="evenodd" d="M0 28.1938V28.9982L3.55597 33.1892L4.95297 33.9512L0 28.1938Z" fill="#BF0033"/>
<path fill-rule="evenodd" clip-rule="evenodd" d="M0 28.8289V29.6755L2.45532 32.5119L3.85231 33.3162L0 28.8289Z" fill="#BE0033"/>
<path fill-rule="evenodd" clip-rule="evenodd" d="M0 29.5061V30.3104L1.35466 31.8768L2.75164 32.6811L0 29.5061Z" fill="#BD0033"/>
<path fill-rule="evenodd" clip-rule="evenodd" d="M0 30.1411V30.3528C0 30.7761 0.296331 31.2841 0.634994 31.4958L1.65099 32.0461L0 30.1411Z" fill="#BC0033"/>
<path fill-rule="evenodd" clip-rule="evenodd" d="M0.253906 31.1147C0.338572 31.1994 0.380905 31.2841 0.465571 31.3264L0.253906 31.1147Z" fill="#BB0033"/>
</svg>
