<svg width="99" height="42" viewBox="0 0 99 42" fill="none" xmlns="http://www.w3.org/2000/svg">
<path fill-rule="evenodd" clip-rule="evenodd" d="M64.8032 33.4882C62.9828 33.9962 60.6122 34.2078 58.5802 34.2078C53.2887 34.2078 49.8174 31.4562 49.8174 26.4186C49.8174 21.6349 53.077 18.5446 57.8182 18.5446C58.8765 18.5446 60.0195 18.6716 60.6968 19.0103V12.0676H64.8032V33.4882ZM60.6968 22.5662C60.0618 22.2699 59.1728 22.1006 58.1568 22.1006C55.6593 22.1006 54.0083 23.6246 54.0083 26.2916C54.0083 29.1278 55.7863 30.7365 58.7072 30.7365C59.2152 30.7365 60.0195 30.7365 60.6968 30.5672V22.5662ZM98.5428 33.4882C96.7225 33.9962 94.3518 34.2078 92.2775 34.2078C87.0282 34.2078 83.5145 31.4562 83.5145 26.4186C83.5145 21.6349 86.7742 18.5446 91.5155 18.5446C92.6162 18.5446 93.7168 18.6716 94.3942 19.0103V12.0676H98.5428V33.4882ZM94.3942 22.5662C93.7592 22.2699 92.9125 22.1006 91.8965 22.1006C89.3565 22.1006 87.7055 23.6246 87.7055 26.2916C87.7055 29.1278 89.5258 30.7365 92.4468 30.7365C92.9548 30.7365 93.7168 30.7365 94.3942 30.5672V22.5662ZM71.2802 22.5662C71.9575 22.2699 72.9312 22.1852 73.7355 22.1852C76.2755 22.1852 78.0112 23.6246 78.0112 26.2069C78.0112 29.2548 76.0638 30.6518 73.4815 30.6942V34.2078H73.6932C79.0272 34.2078 82.2022 31.2868 82.2022 26.0799C82.2022 21.3386 78.8155 18.5446 73.8202 18.5446C71.2802 18.5446 68.7825 19.1373 67.1315 19.8146V39.9228H71.2802V22.5662Z" fill="black"/>
<path fill-rule="evenodd" clip-rule="evenodd" d="M34.6621 8.76562L35.3394 9.52763L35.7204 9.31596L34.6621 8.76562Z" fill="#DC0032"/>
<path fill-rule="evenodd" clip-rule="evenodd" d="M33.6465 8.21533L34.9588 9.73933L35.4244 9.48533L34.9164 8.89267L33.6465 8.21533Z" fill="#DC0032"/>
<path fill-rule="evenodd" clip-rule="evenodd" d="M32.5879 7.66504L34.5776 9.95104L35.0432 9.69704L33.9002 8.34237L32.5879 7.66504Z" fill="#DC0032"/>
<path fill-rule="evenodd" clip-rule="evenodd" d="M31.5723 7.1145L34.1969 10.1625L34.6626 9.9085L32.8423 7.79184L31.5723 7.1145ZM36.6099 12.4908L36.3135 12.6601L36.6099 12.9988V12.4908Z" fill="#DC0032"/>
<path fill-rule="evenodd" clip-rule="evenodd" d="M30.5557 6.56421L33.8153 10.3742L34.281 10.1202L31.8257 7.24154L30.5557 6.56421ZM36.4399 12.5755L35.9743 12.8718L36.6093 13.6338V12.8295L36.4399 12.5755Z" fill="#DC0032"/>
<path fill-rule="evenodd" clip-rule="evenodd" d="M29.4971 6.01392L33.4341 10.5859L33.9421 10.3319L30.8094 6.69125L29.4971 6.01392ZM36.0587 12.7872L35.593 13.0835L36.609 14.2689V13.4645L36.0587 12.7872Z" fill="#DC0032"/>
<path fill-rule="evenodd" clip-rule="evenodd" d="M28.4814 5.46362L33.0958 10.7976L33.5614 10.5436L29.7514 6.14094L28.4814 5.46362ZM35.6781 13.0412L35.2124 13.2952L36.6094 14.9462V14.1419L35.6781 13.0412Z" fill="#DC0032"/>
<path fill-rule="evenodd" clip-rule="evenodd" d="M27.4658 4.91333L32.7152 11.0093L33.1808 10.7553L28.7358 5.59066L27.4658 4.91333ZM35.2974 13.2529L34.8318 13.5069L36.6098 15.5813V14.7769L35.2974 13.2529Z" fill="#DC0032"/>
<path fill-rule="evenodd" clip-rule="evenodd" d="M26.4072 4.36304L32.3338 11.221L32.7995 10.967L27.7195 5.04036L26.4072 4.36304ZM34.9161 13.4646L34.4505 13.7186L36.6094 16.2163V15.412L34.9161 13.4646Z" fill="#DC0032"/>
<path fill-rule="evenodd" clip-rule="evenodd" d="M25.3916 3.8125L31.9532 11.4748L32.4189 11.1785L26.6616 4.48983L25.3916 3.8125ZM34.5355 13.6761L34.0699 13.9301L36.6098 16.8934V16.0891L34.5355 13.6761Z" fill="#DC0032"/>
<path fill-rule="evenodd" clip-rule="evenodd" d="M24.333 3.26221L31.572 11.6865L32.0376 11.3902L25.6453 3.93953L24.333 3.26221ZM34.1966 13.8878L33.6886 14.1418L36.6096 17.5284V16.7241L34.1966 13.8878Z" fill="#DC0032"/>
<path fill-rule="evenodd" clip-rule="evenodd" d="M23.3164 2.71191L31.1903 11.8982L31.6983 11.6019L24.6287 3.38924L23.3164 2.71191ZM33.815 14.0995L33.3493 14.3535L36.609 18.2058V17.3592L33.815 14.0995Z" fill="#DC0032"/>
<path fill-rule="evenodd" clip-rule="evenodd" d="M22.3008 2.16162L30.8521 12.1099L31.3177 11.8135L23.5708 2.83895L22.3008 2.16162ZM33.4344 14.3112L32.9687 14.5652L36.6093 18.8409V18.0365L33.4344 14.3112Z" fill="#DC0032"/>
<path fill-rule="evenodd" clip-rule="evenodd" d="M21.2422 1.56885L30.4708 12.3214L30.9365 12.0251L22.5545 2.28851L21.2422 1.56885ZM33.0531 14.5227L32.5875 14.7767L36.6091 19.4757V18.6714L33.0531 14.5227Z" fill="#DC0032"/>
<path fill-rule="evenodd" clip-rule="evenodd" d="M20.2266 1.01855L30.0902 12.5331L30.5558 12.2791L21.5389 1.73822L20.2266 1.01855ZM32.6725 14.7344L32.2068 14.9884L36.6094 20.1531V19.3064L32.6725 14.7344Z" fill="#DC0032"/>
<path fill-rule="evenodd" clip-rule="evenodd" d="M19.2109 0.510742L29.7095 12.745L30.1752 12.491L20.4809 1.18807L19.2109 0.510742ZM32.2918 14.9463L31.8262 15.2003L36.6098 20.7882V19.9839L32.2918 14.9463Z" fill="#DC0032"/>
<path fill-rule="evenodd" clip-rule="evenodd" d="M18.5332 0.341309L29.3281 12.9565L29.7938 12.7025L19.4645 0.63764L19.2105 0.510641C18.9989 0.383642 18.7872 0.341309 18.5332 0.341309ZM31.9104 15.1579L31.4448 15.4119L36.6094 21.4231V20.6188L31.9104 15.1579Z" fill="#DC0032"/>
<path fill-rule="evenodd" clip-rule="evenodd" d="M18.5334 0.341309C18.3641 0.341309 18.1947 0.383642 18.0254 0.425975L28.9473 13.1682L29.4553 12.9142L18.6604 0.341309C18.6181 0.341309 18.5757 0.341309 18.5334 0.341309ZM31.5719 15.3695L31.1063 15.6235L36.6096 22.1005V21.2538L31.5719 15.3695Z" fill="#DC0032"/>
<path fill-rule="evenodd" clip-rule="evenodd" d="M18.1525 0.383545C18.0679 0.425878 17.9409 0.468211 17.8985 0.510544L17.6445 0.637543L28.6088 13.3798L29.0744 13.1258L18.1525 0.383545ZM31.1911 15.5811L30.7254 15.8774L36.6097 22.7354V21.931L31.1911 15.5811Z" fill="#DC0032"/>
<path fill-rule="evenodd" clip-rule="evenodd" d="M17.7293 0.552979L17.2637 0.806977L28.2279 13.5915L28.6936 13.3375L17.7293 0.552979ZM30.8102 15.7929L30.3446 16.0892L36.6098 23.3705V22.5661L30.8102 15.7929Z" fill="#DC0032"/>
<path fill-rule="evenodd" clip-rule="evenodd" d="M17.3475 0.764648L16.8818 1.01865L27.8461 13.8032L28.3117 13.5492L17.3475 0.764648ZM30.4284 16.0045L29.9627 16.3009L36.609 24.0478V23.2435L30.4284 16.0045Z" fill="#DC0032"/>
<path fill-rule="evenodd" clip-rule="evenodd" d="M16.9666 0.976318L16.501 1.23032L27.4652 14.0149L27.9309 13.7609L16.9666 0.976318ZM30.0475 16.2162L29.5819 16.5125L36.6091 24.6828V23.8785L30.0475 16.2162Z" fill="#DC0032"/>
<path fill-rule="evenodd" clip-rule="evenodd" d="M16.5858 1.18799L16.1201 1.44199L27.0844 14.2265L27.55 13.9725L16.5858 1.18799ZM29.6667 16.4279L29.201 16.7242L36.6093 25.3178V24.5135L29.6667 16.4279Z" fill="#DC0032"/>
<path fill-rule="evenodd" clip-rule="evenodd" d="M16.2049 1.39966L15.7393 1.65365L26.7035 14.4382L27.1691 14.1842L16.2049 1.39966ZM29.3281 16.6396L28.8625 16.9359L36.6094 25.9952V25.1908L29.3281 16.6396Z" fill="#DC0032"/>
<path fill-rule="evenodd" clip-rule="evenodd" d="M15.8241 1.56885L15.3584 1.86518L26.365 14.6497L26.8307 14.3957L15.8241 1.56885ZM28.9473 16.8934L28.4816 17.1474L36.6096 26.63V25.8257L28.9473 16.8934Z" fill="#DC0032"/>
<path fill-rule="evenodd" clip-rule="evenodd" d="M15.4432 1.78052L14.9775 2.03452L25.9842 14.8614L26.4498 14.6074L15.4432 1.78052ZM28.5664 17.1051L28.1008 17.3591L36.6097 27.3073V26.4607L28.5664 17.1051Z" fill="#DC0032"/>
<path fill-rule="evenodd" clip-rule="evenodd" d="M15.0623 1.99219L14.5967 2.24619L25.6033 15.1154L26.069 14.8191L15.0623 1.99219ZM28.1856 17.3168L27.7199 17.5708L36.6098 27.9423V27.138L28.1856 17.3168Z" fill="#DC0032"/>
<path fill-rule="evenodd" clip-rule="evenodd" d="M14.6805 2.20386L14.2148 2.45785L25.2215 15.3271L25.6871 15.0308L14.6805 2.20386ZM27.8037 17.5284L27.3381 17.7824L36.609 28.5773V27.773L27.8037 17.5284Z" fill="#DC0032"/>
<path fill-rule="evenodd" clip-rule="evenodd" d="M14.2997 2.41553L13.834 2.66953L24.8406 15.5388L25.3063 15.2424L14.2997 2.41553ZM27.4229 17.7401L26.9573 17.9941L36.6092 29.2547V28.408L27.4229 17.7401Z" fill="#DC0032"/>
<path fill-rule="evenodd" clip-rule="evenodd" d="M13.9188 2.6272L13.4531 2.8812L24.4597 15.7504L24.9254 15.4541L13.9188 2.6272ZM27.0844 17.9518L26.6187 18.2058L36.6093 29.8897V29.0853L27.0844 17.9518Z" fill="#DC0032"/>
<path fill-rule="evenodd" clip-rule="evenodd" d="M13.5383 2.79663L13.0303 3.05063L24.1215 15.9622L24.5872 15.6659L13.5383 2.79663ZM26.7039 18.1635L26.2382 18.4175L36.6098 30.5248V29.7204L26.7039 18.1635Z" fill="#DC0032"/>
<path fill-rule="evenodd" clip-rule="evenodd" d="M13.1564 3.0083L12.6484 3.2623L23.782 16.2162C23.8244 16.1315 23.8667 16.0892 23.9514 16.0469L24.2054 15.8775L13.1564 3.0083ZM26.322 18.3752L25.8564 18.6292L36.5243 31.0751C36.5666 30.9481 36.6089 30.8211 36.6089 30.6941V30.3554L26.322 18.3752Z" fill="#DC0032"/>
<path fill-rule="evenodd" clip-rule="evenodd" d="M12.7756 3.21997L12.2676 3.47397L23.6552 16.7242V16.5549C23.6552 16.4279 23.7398 16.2585 23.8245 16.1315L12.7756 3.21997ZM25.9412 18.5869L25.6025 18.7985C25.5602 18.7985 25.5179 18.8409 25.4755 18.8409L36.3127 31.4984C36.4397 31.3291 36.5244 31.1598 36.5667 30.9904L25.9412 18.5869Z" fill="#DC0032"/>
<path fill-rule="evenodd" clip-rule="evenodd" d="M12.3947 3.43164L11.8867 3.68564L23.6553 17.4015V16.5549L12.3947 3.43164ZM24.7559 18.6292L36.0165 31.7948C36.1435 31.7101 36.2705 31.5408 36.3975 31.4138L25.5603 18.7985C25.3909 18.8832 25.1369 18.8832 24.9676 18.7985L24.7559 18.6292Z" fill="#DC0032"/>
<path fill-rule="evenodd" clip-rule="evenodd" d="M12.0138 3.64331L11.5059 3.89731L35.6356 32.0064L35.9743 31.8371C36.0166 31.7948 36.059 31.7524 36.1013 31.7101L25.0101 18.7986H24.9677L23.9941 18.2059C23.9094 18.1636 23.8671 18.0789 23.7824 17.9942C23.6978 17.8672 23.6978 17.7826 23.6554 17.6979V17.2322L12.0138 3.64331Z" fill="#DC0032"/>
<path fill-rule="evenodd" clip-rule="evenodd" d="M11.633 3.85498L11.125 4.10898L35.2548 32.2181L35.7204 31.9641L11.633 3.85498Z" fill="#DC0032"/>
<path fill-rule="evenodd" clip-rule="evenodd" d="M11.2521 4.02417L10.7441 4.27817L34.9163 32.4296L35.3819 32.1756L11.2521 4.02417Z" fill="#DC0032"/>
<path fill-rule="evenodd" clip-rule="evenodd" d="M10.8713 4.23584L10.3633 4.48984L34.5354 32.6413L35.0011 32.3873L10.8713 4.23584Z" fill="#DC0032"/>
<path fill-rule="evenodd" clip-rule="evenodd" d="M10.4904 4.44751L9.98242 4.7015L34.1546 32.853L34.6203 32.599L10.4904 4.44751Z" fill="#DC0032"/>
<path fill-rule="evenodd" clip-rule="evenodd" d="M10.0663 4.65918L9.60059 4.91318L33.7728 33.107L34.2384 32.8107L10.0663 4.65918Z" fill="#DC0032"/>
<path fill-rule="evenodd" clip-rule="evenodd" d="M9.68539 4.87085L9.21973 5.12485L33.3919 33.3187L33.8576 33.0223L9.68539 4.87085Z" fill="#DC0032"/>
<path fill-rule="evenodd" clip-rule="evenodd" d="M9.30453 5.08252L8.83887 5.33651L33.0534 33.5303L33.519 33.234L9.30453 5.08252Z" fill="#DC0032"/>
<path fill-rule="evenodd" clip-rule="evenodd" d="M8.92367 5.25195L8.45801 5.50595L32.6725 33.7421L33.1382 33.4458L8.92367 5.25195Z" fill="#DC0032"/>
<path fill-rule="evenodd" clip-rule="evenodd" d="M8.54282 5.46362L8.07715 5.71762L32.2917 33.9538L32.7573 33.6998L8.54282 5.46362Z" fill="#DC0032"/>
<path fill-rule="evenodd" clip-rule="evenodd" d="M8.16196 5.67529L7.69629 5.92929L19.4649 19.6452L19.8458 19.8992C20.0152 19.9838 20.1845 20.1955 20.1845 20.4072V20.4495L31.9108 34.1655L32.3765 33.9114L8.16196 5.67529Z" fill="#DC0032"/>
<path fill-rule="evenodd" clip-rule="evenodd" d="M7.7811 5.88696L7.31543 6.14095L18.3644 19.0526L19.7613 19.8145L7.7811 5.88696ZM20.1423 20.2802C20.1423 20.3225 20.1847 20.3648 20.1847 20.4072V21.1268L31.5299 34.3771L31.9956 34.1231L20.1423 20.2802Z" fill="#DC0032"/>
<path fill-rule="evenodd" clip-rule="evenodd" d="M7.39926 6.09863L6.93359 6.35263L17.2629 18.4176L18.6599 19.1796L7.39926 6.09863ZM20.1838 20.9575V21.7619L31.1904 34.5888L31.6561 34.3348L20.1838 20.9575Z" fill="#DC0032"/>
<path fill-rule="evenodd" clip-rule="evenodd" d="M7.0184 6.3103L6.55273 6.5643L16.2047 17.7826L17.5593 18.5446L7.0184 6.3103ZM20.184 21.5925V22.4392L30.8096 34.8004L31.2752 34.5465L20.184 21.5925Z" fill="#DC0032"/>
<path fill-rule="evenodd" clip-rule="evenodd" d="M6.63754 6.47949L6.17188 6.73349L15.1042 17.1474L16.4588 17.9518L6.63754 6.47949ZM20.1841 22.2697V23.074L30.4287 35.0119L30.8944 34.7579L20.1841 22.2697Z" fill="#DC0032"/>
<path fill-rule="evenodd" clip-rule="evenodd" d="M6.25667 6.69116L5.79102 6.94516L14.0036 16.5124L15.3583 17.3168L6.25667 6.69116ZM20.1842 22.9047V23.7091L30.0478 35.2236L30.5135 34.9696L20.1842 22.9047Z" fill="#DC0032"/>
<path fill-rule="evenodd" clip-rule="evenodd" d="M5.87582 6.90283L5.41016 7.15683L12.9031 15.9198L14.2577 16.6818L5.87582 6.90283ZM20.1844 23.5397V24.3864L29.667 35.4776L30.1326 35.1813L20.1844 23.5397Z" fill="#DC0032"/>
<path fill-rule="evenodd" clip-rule="evenodd" d="M5.49496 7.1145L5.0293 7.3685L11.8026 15.2848L13.1572 16.0468L5.49496 7.1145ZM20.1845 24.2171V25.0214L29.3284 35.6893L29.7941 35.3929L20.1845 24.2171Z" fill="#DC0032"/>
<path fill-rule="evenodd" clip-rule="evenodd" d="M5.1141 7.32617L4.64844 7.58017L10.7021 14.6498L12.099 15.4118L5.1141 7.32617ZM20.1846 24.8521V25.6564L28.9476 35.9009L29.4132 35.6046L20.1846 24.8521Z" fill="#DC0032"/>
<path fill-rule="evenodd" clip-rule="evenodd" d="M4.73226 7.53784L4.2666 7.79184L9.60057 14.0148L10.9976 14.8191L4.73226 7.53784ZM15.8235 21.2537L16.9242 22.5237V22.0581C16.9242 21.9734 16.8395 21.8464 16.7549 21.8041L15.8235 21.2537ZM20.1838 25.4871V26.3337L28.5657 36.1126L29.0314 35.8163L20.1838 25.4871Z" fill="#DB0032"/>
<path fill-rule="evenodd" clip-rule="evenodd" d="M4.3514 7.70728L3.88574 7.96128L8.50004 13.3799L9.89704 14.1842L4.3514 7.70728ZM14.723 20.6188L16.9243 23.1588V22.3545L16.12 21.4232L14.723 20.6188ZM20.1839 26.1645V26.9688L28.1849 36.3244L28.6505 36.0704L20.1839 26.1645Z" fill="#DC0032"/>
<path fill-rule="evenodd" clip-rule="evenodd" d="M3.97054 7.91895L3.50488 8.17295L7.44185 12.7872L8.79652 13.5492L3.97054 7.91895ZM13.6225 20.0262L16.9245 23.8362V23.0318L15.0195 20.7882L13.6225 20.0262ZM20.1841 26.7995V27.6038L27.804 36.5361L28.2697 36.2821L20.1841 26.7995Z" fill="#DC0032"/>
<path fill-rule="evenodd" clip-rule="evenodd" d="M3.58968 8.13062L3.12402 8.38462L6.34132 12.1522L7.69598 12.9142L3.58968 8.13062ZM12.5643 19.3912L16.9246 24.4712V23.6668L13.9189 20.1532L12.5643 19.3912ZM20.1842 27.4768V28.2811L27.4655 36.7477L27.9311 36.4937L20.1842 27.4768Z" fill="#DC0032"/>
<path fill-rule="evenodd" clip-rule="evenodd" d="M3.20883 8.34229L2.74316 8.59629L5.24081 11.5173L6.59546 12.2792L3.20883 8.34229ZM11.4638 18.7562L16.9247 25.1062V24.3018L12.8184 19.5605L11.4638 18.7562ZM20.1843 28.1118V28.9161L27.0847 36.9594L27.5503 36.7054L20.1843 28.1118Z" fill="#DC0032"/>
<path fill-rule="evenodd" clip-rule="evenodd" d="M2.82797 8.55396L2.3623 8.80795L4.14029 10.8823L5.49494 11.6866L2.82797 8.55396ZM10.3633 18.1212L16.9249 25.7835V24.9792L11.7179 18.9256L10.3633 18.1212ZM20.1845 28.7468V29.5511L26.7038 37.1711L27.1694 36.9171L20.1845 28.7468Z" fill="#DC0032"/>
<path fill-rule="evenodd" clip-rule="evenodd" d="M2.44711 8.76562L1.98145 9.01963L3.03977 10.2473L4.43676 11.0516L2.44711 8.76562ZM9.26273 17.5286L16.925 26.4185V25.6142L10.6174 18.2906L9.26273 17.5286ZM20.1846 29.4241V30.2285L26.323 37.3827L26.7886 37.1287L20.1846 29.4241Z" fill="#DC0032"/>
<path fill-rule="evenodd" clip-rule="evenodd" d="M2.06561 8.93481L1.55762 9.18882L1.93861 9.65448L3.3356 10.4165L2.06561 8.93481ZM8.16157 16.8934L16.9245 27.0956V26.249L9.55857 17.6554L8.16157 16.8934ZM20.1841 30.059V30.8633L25.9415 37.6366L26.4071 37.3403L20.1841 30.059Z" fill="#DC0032"/>
<path fill-rule="evenodd" clip-rule="evenodd" d="M1.685 9.14648L1.38867 9.31582L2.23533 9.78148L1.685 9.14648ZM7.06129 16.2584L16.9249 27.7306V26.9264L8.45829 17.0628L7.06129 16.2584ZM20.1845 30.694V31.5406L25.6032 37.8483L26.0688 37.5519L20.1845 30.694Z" fill="#DC0032"/>
<path fill-rule="evenodd" clip-rule="evenodd" d="M6.00293 15.6235L16.9249 28.3658V27.5614L7.35758 16.4279L6.00293 15.6235ZM20.1845 31.3714V32.1758L25.2221 38.06L25.6878 37.7637L20.1845 31.3714Z" fill="#DC0032"/>
<path fill-rule="evenodd" clip-rule="evenodd" d="M4.90234 15.0308L16.9249 29.043V28.1963L6.25699 15.7928L4.90234 15.0308ZM20.1845 32.0063V32.8106L24.8412 38.2716L25.3069 37.9753L20.1845 32.0063Z" fill="#DC0032"/>
<path fill-rule="evenodd" clip-rule="evenodd" d="M3.80176 14.3958L16.925 29.678V28.8736L5.15641 15.1578L3.80176 14.3958ZM20.1846 32.6413V33.488L24.4603 38.4833L24.9259 38.2293L20.1846 32.6413Z" fill="#DC0032"/>
<path fill-rule="evenodd" clip-rule="evenodd" d="M2.7002 13.7607L16.9241 30.313V29.5086L4.05485 14.5651L2.7002 13.7607ZM20.1837 33.3186V34.123L24.0784 38.6949L24.544 38.4409L20.1837 33.3186Z" fill="#DB0032"/>
<path fill-rule="evenodd" clip-rule="evenodd" d="M1.59961 13.126L16.9242 30.9905V30.1862L2.95426 13.9303L1.59961 13.126ZM20.1838 33.9539V34.7581L23.7398 38.9068L24.2054 38.6528L20.1838 33.9539Z" fill="#DA0032"/>
<path fill-rule="evenodd" clip-rule="evenodd" d="M0.499023 12.5332L16.9242 31.6254V30.8211L1.89601 13.2952L0.499023 12.5332ZM20.1839 34.5888V35.4354L23.3589 39.1184L23.8245 38.8644L20.1839 34.5888Z" fill="#D90032"/>
<path fill-rule="evenodd" clip-rule="evenodd" d="M0.457031 12.491V13.0836L16.9246 32.2605V31.4562L0.795696 12.6603L0.457031 12.491ZM20.1842 35.2661V35.7741C20.1842 35.8588 20.1419 35.9435 20.0995 35.9858L22.9782 39.3301L23.4439 39.0761L20.1842 35.2661Z" fill="#D80032"/>
<path fill-rule="evenodd" clip-rule="evenodd" d="M0.457031 12.9143V13.761L16.9246 32.9379V32.1335L0.457031 12.9143ZM20.1419 35.9011C20.0995 36.0705 19.9725 36.2398 19.8455 36.2821L19.8032 36.3245L22.5972 39.5418L23.0629 39.2878L20.1419 35.9011Z" fill="#D70032"/>
<path fill-rule="evenodd" clip-rule="evenodd" d="M0.457031 13.5916V14.3959L16.9246 33.5728V32.7684L0.457031 13.5916ZM19.8879 36.2397C19.8879 36.2821 19.8879 36.2821 19.8455 36.2821L19.4223 36.5361L22.2162 39.7534L22.6819 39.4994L19.8879 36.2397Z" fill="#D60032"/>
<path fill-rule="evenodd" clip-rule="evenodd" d="M0.457031 14.2266V15.0309L16.9246 34.2078V33.4035L0.457031 14.2266ZM19.5492 36.4514L19.0413 36.7477L21.8775 40.0074L22.3432 39.7111L19.5492 36.4514Z" fill="#D50032"/>
<path fill-rule="evenodd" clip-rule="evenodd" d="M0.457031 14.9038V15.7081L16.9246 34.885V34.0807L0.457031 14.9038ZM19.1683 36.663L18.8719 36.8323C18.7873 36.8746 18.7026 36.8746 18.6179 36.8746L21.4965 40.219L21.9622 39.9226L19.1683 36.663Z" fill="#D40032"/>
<path fill-rule="evenodd" clip-rule="evenodd" d="M0.457031 15.5388V16.3432L16.9246 35.52V34.7157L0.457031 15.5388ZM17.8559 36.663L21.1155 40.4306L21.5812 40.1343L18.7449 36.8746C18.7026 36.8746 18.6179 36.917 18.5756 36.917H18.5333C18.4062 36.917 18.3216 36.8746 18.2369 36.8323L17.8559 36.663Z" fill="#D30032"/>
<path fill-rule="evenodd" clip-rule="evenodd" d="M0.457031 16.1738V17.0205L20.7345 40.6423L21.2002 40.346L18.1523 36.79L17.2209 36.282C17.0516 36.1973 16.9246 35.9857 16.9246 35.774V35.3507L0.457031 16.1738Z" fill="#D20032"/>
<path fill-rule="evenodd" clip-rule="evenodd" d="M0.457031 16.8511V17.6554L20.3535 40.8539L20.8192 40.5999L0.457031 16.8511Z" fill="#D10032"/>
<path fill-rule="evenodd" clip-rule="evenodd" d="M0.457031 17.4861V18.2904L19.9725 41.0656L20.4382 40.8116L0.457031 17.4861Z" fill="#D00032"/>
<path fill-rule="evenodd" clip-rule="evenodd" d="M0.457031 18.1211V18.9678L19.6339 41.2773L20.0995 41.0233L0.457031 18.1211Z" fill="#CF0032"/>
<path fill-rule="evenodd" clip-rule="evenodd" d="M0.457031 18.7986V19.6029L19.2529 41.4891L19.7185 41.2351L0.457031 18.7986Z" fill="#CE0032"/>
<path fill-rule="evenodd" clip-rule="evenodd" d="M0.457031 19.4336V20.2379L18.8296 41.6585C18.9566 41.6161 19.0836 41.5738 19.2106 41.5315L19.3376 41.4468L0.457031 19.4336Z" fill="#CD0032"/>
<path fill-rule="evenodd" clip-rule="evenodd" d="M0.457031 20.0684V20.915L18.2793 41.6582C18.3639 41.6582 18.4486 41.6582 18.5333 41.6582C18.6603 41.6582 18.7873 41.6582 18.9143 41.6159L0.457031 20.0684Z" fill="#CC0032"/>
<path fill-rule="evenodd" clip-rule="evenodd" d="M0.457031 20.7458V21.5502L17.3056 41.1927L17.8983 41.5314C18.0253 41.6161 18.2369 41.6584 18.4063 41.6584L0.457031 20.7458Z" fill="#CB0032"/>
<path fill-rule="evenodd" clip-rule="evenodd" d="M0.457031 21.3809V22.1852L16.2049 40.5577L17.6019 41.3621L0.457031 21.3809Z" fill="#CA0032"/>
<path fill-rule="evenodd" clip-rule="evenodd" d="M0.457031 22.0581V22.8624L15.1043 39.9227L16.5013 40.727L0.457031 22.0581Z" fill="#C90032"/>
<path fill-rule="evenodd" clip-rule="evenodd" d="M0.457031 22.6931V23.4974L14.0036 39.2877L15.3583 40.092L0.457031 22.6931Z" fill="#C80033"/>
<path fill-rule="evenodd" clip-rule="evenodd" d="M0.457031 23.3281V24.1325L12.9029 38.6527L14.2576 39.457L0.457031 23.3281Z" fill="#C70033"/>
<path fill-rule="evenodd" clip-rule="evenodd" d="M0.457031 24.0054V24.8097L11.76 37.9753L13.1569 38.7796L0.457031 24.0054Z" fill="#C60033"/>
<path fill-rule="evenodd" clip-rule="evenodd" d="M0.457031 24.6404V25.4447L10.6593 37.3403L12.0563 38.1446L0.457031 24.6404Z" fill="#C50033"/>
<path fill-rule="evenodd" clip-rule="evenodd" d="M0.457031 25.2754V26.0797L9.55864 36.7053L10.9556 37.5096L0.457031 25.2754Z" fill="#C40033"/>
<path fill-rule="evenodd" clip-rule="evenodd" d="M0.457031 25.9529V26.7572L8.45797 36.0704L9.85497 36.8748L0.457031 25.9529Z" fill="#C30033"/>
<path fill-rule="evenodd" clip-rule="evenodd" d="M0.457031 26.5879V27.3922L7.35731 35.4354L8.75431 36.2398L0.457031 26.5879Z" fill="#C20033"/>
<path fill-rule="evenodd" clip-rule="evenodd" d="M0.457031 27.2227V28.0693L6.25664 34.8003L7.61131 35.6046L0.457031 27.2227Z" fill="#C10033"/>
<path fill-rule="evenodd" clip-rule="evenodd" d="M0.457031 27.9001V28.7045L5.11366 34.1655L6.51064 34.9698L0.457031 27.9001Z" fill="#C00033"/>
<path fill-rule="evenodd" clip-rule="evenodd" d="M0.457031 28.5352V29.3395L4.013 33.5305L5.41 34.2925L0.457031 28.5352Z" fill="#BF0033"/>
<path fill-rule="evenodd" clip-rule="evenodd" d="M0.457031 29.1702V30.0168L2.91235 32.8532L4.30934 33.6575L0.457031 29.1702Z" fill="#BE0033"/>
<path fill-rule="evenodd" clip-rule="evenodd" d="M0.457031 29.8474V30.6517L1.81169 32.2181L3.20868 33.0224L0.457031 29.8474Z" fill="#BD0033"/>
<path fill-rule="evenodd" clip-rule="evenodd" d="M0.457031 30.4824V30.6941C0.457031 31.1174 0.753362 31.6254 1.09203 31.8371L2.10802 32.3874L0.457031 30.4824Z" fill="#BC0033"/>
<path fill-rule="evenodd" clip-rule="evenodd" d="M0.710938 31.4561C0.795603 31.5407 0.837936 31.6254 0.922602 31.6677L0.710938 31.4561Z" fill="#BB0033"/>
</svg>
